#!OML:ASF I:\Actors\actors\Patient Classification 1\Patient 1\Session 1\Subject1.ASF
:FULLY-SPECIFIED
:DEGREES
1711
root -0.752816 17.5465 9.62086 25.0932 -30.7384 -11.1181
lowerback 5.34516 -3.56235 7.79954
upperback -8.29405 -3.53675 5.51834
thorax -12.1765 -2.14232 2.2603
lowerneck -19.2705 0.762234 2.84393
upperneck 26.2232 1.01482 -3.436
head 11.8261 0.2296 -1.61774
rclavicle 1.12711e-013 1.82882e-014
rhumerus -11.7138 23.3958 -85.7974
rradius 77.6923
rwrist -39.7887
rhand 11.9132 -61.4951
rfingers 7.12502
rthumb 36.9386 -1527.58
lclavicle 1.12711e-013 1.82882e-014
lhumerus 5.25077 -38.2666 104.781
lradius 42.8006
lwrist 19.4134
lhand -43.1524 -3.95081
lfingers 7.12502
lthumb -16.0051 25.408
rfemur -22.7379 23.8228 24.7929
rtibia 6.62841
rfoot -5.49858 3.09144
rtoes 7.01144
lfemur 5.04397 -53.5978 -12.643
ltibia -3.28258
lfoot 80.3884 -128.706
ltoes 44.4583
1712
root -0.750025 17.5429 9.62388 25.3554 -29.6368 -11.9971
lowerback 4.70857 -3.55841 8.83136
upperback -8.44962 -3.4787 5.67419
thorax -12.0468 -2.20354 1.82644
lowerneck -19.278 0.640795 2.73115
upperneck 26.6287 0.848229 -3.32688
head 11.9779 0.155691 -1.59067
rclavicle -3.38431e-014 4.57205e-015
rhumerus -14.0861 23.2789 -86.5552
rradius 78.2008
rwrist -39.6714
rhand 12.3923 -59.3215
rfingers 7.12502
rthumb 37.3917 -1525.28
lclavicle -3.38431e-014 4.57205e-015
lhumerus 3.65977 -39.6888 105.375
lradius 42.8498
lwrist 19.3016
lhand -43.0148 -3.30225
lfingers 7.12502
lthumb -15.8726 26.0672
rfemur -22.1864 23.3622 26.1612
rtibia 6.28253
rfoot -5.60309 2.98108
rtoes 6.84052
lfemur 5.1841 -53.6632 -11.4721
ltibia -3.51753
lfoot 81.1131 -128.334
ltoes 44.0478
1713
root -0.735456 17.5287 9.61571 25.52 -28.2493 -13.4561
lowerback 4.55142 -3.59975 10.4425
upperback -8.50098 -3.35779 5.99817
thorax -12.1358 -2.27356 1.293
lowerneck -19.3661 0.518901 2.44121
upperneck 27.1692 0.706337 -3.1131
head 12.201 0.0874725 -1.49261
rclavicle 4.77083e-015 1.07741e-013
rhumerus -16.4471 23.136 -87.2516
rradius 78.7189
rwrist -40.2591
rhand 12.2541 -57.2464
rfingers 7.12502
rthumb 37.261 -1523.24
lclavicle 4.77083e-015 1.07741e-013
lhumerus 2.00297 -41.2149 105.989
lradius 43.2122
lwrist 19.763
lhand -43.7472 -3.39488
lfingers 7.12502
lthumb -16.5778 25.917
rfemur -21.2154 22.6892 28.415
rtibia 5.96524
rfoot -5.74607 2.98038
rtoes 6.45677
lfemur 5.6697 -52.9397 -9.81903
ltibia -3.97226
lfoot 83.2114 -127.51
ltoes 43.2025
1714
root -0.727564 17.534 9.60915 25.0619 -28.1348 -12.5902
lowerback 3.8085 -3.42432 9.38058
upperback -8.67242 -3.33741 5.81091
thorax -11.7867 -2.18278 1.60455
lowerneck -19.5794 0.399788 2.18598
upperneck 27.8458 0.575403 -2.96753
head 12.5084 0.0173299 -1.42717
rclavicle 6.3872e-014 4.73108e-014
rhumerus -18.7531 22.9096 -87.8903
rradius 79.6564
rwrist -40.9313
rhand 12.0874 -57.2979
rfingers 7.12502
rthumb 37.1033 -1523.34
lclavicle 6.3872e-014 4.73108e-014
lhumerus 0.241164 -42.4045 106.85
lradius 43.6984
lwrist 20.3557
lhand -44.6115 -3.66626
lfingers 7.12502
lthumb -17.4098 25.5741
rfemur -21.3051 22.8241 27.3813
rtibia 5.95723
rfoot -5.90183 2.25155
rtoes 6.66019
lfemur 5.36155 -53.2625 -10.433
ltibia -3.81454
lfoot 83.3364 -127.494
ltoes 43.3159
1715
root -0.701988 17.518 9.59624 24.9383 -27.0577 -13.353
lowerback 4.19044 -3.51702 9.9034
upperback -9.02411 -3.28866 6.27601
thorax -12.4575 -2.19697 1.89868
lowerneck -19.5179 0.381141 2.11072
upperneck 28.4068 0.69407 -3.34498
head 12.7278 0.00562983 -1.55007
rclavicle 2.1506e-014 1.11319e-014
rhumerus -21.5831 23.1416 -88.496
rradius 80.6639
rwrist -41.4772
rhand 12.0755 -56.7287
rfingers 7.12502
rthumb 37.0921 -1522.77
lclavicle 2.1506e-014 1.11319e-014
lhumerus -2.18666 -42.6091 108.551
lradius 44.2572
lwrist 20.7327
lhand -44.7809 -3.70673
lfingers 7.12502
lthumb -17.5728 25.5191
rfemur -20.6427 22.3541 28.6322
rtibia 5.72571
rfoot -6.01601 1.94764
rtoes 7.52427
lfemur 5.5117 -52.6029 -9.35511
ltibia -4.06681
lfoot 85.5467 -126.876
ltoes 42.6977
1716
root -0.694207 17.5288 9.5945 24.4176 -27.2068 -11.7879
lowerback 4.10776 -3.42206 8.20862
upperback -9.90563 -3.31608 5.9282
thorax -13.316 -2.09668 2.51541
lowerneck -19.0223 0.374503 2.0881
upperneck 29.1688 0.723516 -3.43458
head 12.9375 -0.00211994 -1.58897
rclavicle 4.04713e-015 1.19271e-014
rhumerus -25.2677 23.1097 -89.7826
rradius 81.7027
rwrist -41.6877
rhand 12.0519 -55.4648
rfingers 7.12502
rthumb 37.0698 -1521.51
lclavicle 4.04713e-015 1.19271e-014
lhumerus -5.74101 -42.8369 110.639
lradius 45.1014
lwrist 21.2658
lhand -44.689 -3.88844
lfingers 7.12502
lthumb -17.4844 25.3453
rfemur -21.0746 22.7235 26.5686
rtibia 5.64659
rfoot -6.15939 0.990643
rtoes 7.33781
lfemur 4.83328 -53.4854 -10.5838
ltibia -3.65335
lfoot 84.8761 -127.07
ltoes 43.0321
1717
root -0.676086 17.5336 9.59707 23.8088 -26.9824 -11.2833
lowerback 3.85246 -3.30802 7.99793
upperback -10.0854 -3.23861 5.52856
thorax -13.3696 -2.06754 2.1697
lowerneck -18.929 0.289153 2.04734
upperneck 29.6589 0.524667 -3.15496
head 13.1125 -0.0585172 -1.51514
rclavicle -1.67165e-014 -4.37326e-014
rhumerus -28.0252 22.6324 -91.0075
rradius 82.6944
rwrist -41.3787
rhand 12.592 -54.0649
rfingers 7.12502
rthumb 37.5804 -1519.98
lclavicle -1.67165e-014 -4.37326e-014
lhumerus -8.43441 -43.9412 111.707
lradius 46.2504
lwrist 22.401
lhand -44.6927 -3.91674
lfingers 7.12502
lthumb -17.4879 25.3167
rfemur -20.6176 22.6988 26.0715
rtibia 5.41742
rfoot -6.27481 0.519096
rtoes 6.53885
lfemur 5.41001 -54.2411 -11.6398
ltibia -3.50077
lfoot 84.3578 -126.746
ltoes 42.827
1718
root -0.648935 17.5301 9.5964 23.3905 -26.6264 -11.274
lowerback 3.18854 -3.1437 8.29481
upperback -9.87648 -3.10632 5.21401
thorax -12.7404 -2.04541 1.5653
lowerneck -19.0276 0.113227 2.00181
upperneck 29.6446 0.198764 -2.88273
head 13.1158 -0.167218 -1.45482
rclavicle -4.62174e-015 -2.44505e-014
rhumerus -30.0698 22.0624 -91.9596
rradius 83.7033
rwrist -40.664
rhand 13.3502 -53.0916
rfingers 7.12502
rthumb 38.2965 -1518.81
lclavicle -4.62174e-015 -2.44505e-014
lhumerus -10.4263 -45.5689 112.174
lradius 47.628
lwrist 24.0018
lhand -44.7653 -3.84484
lfingers 7.12502
lthumb -17.5578 25.3823
rfemur -20.1293 22.3018 26.2331
rtibia 5.27577
rfoot -6.36235 0.526682
rtoes 5.92089
lfemur 6.1771 -54.9627 -12.3297
ltibia -3.4324
lfoot 83.7534 -126.415
ltoes 42.5369
1719
root -0.621437 17.5232 9.58761 23.2858 -26.2129 -11.2427
lowerback 1.82399 -2.92837 8.43055
upperback -9.41365 -3.02293 4.94133
thorax -11.3738 -2.01038 1.03616
lowerneck -19.4549 -0.0248652 1.96726
upperneck 29.4753 -0.105071 -2.51785
head 13.1264 -0.250186 -1.35582
rclavicle -9.23728e-015 -4.37326e-015
rhumerus -31.3806 21.522 -92.6219
rradius 84.684
rwrist -39.9624
rhand 13.7163 -52.6594
rfingers 7.12502
rthumb 38.642 -1518.28
lclavicle -9.23728e-015 -4.37326e-015
lhumerus -11.6126 -47.4423 111.975
lradius 49.2354
lwrist 26.0634
lhand -44.3578 -4.06881
lfingers 7.12502
lthumb -17.1657 25.1929
rfemur -20.1287 22.0355 26.2162
rtibia 5.28474
rfoot -6.47302 0.356154
rtoes 5.50526
lfemur 6.10265 -55.3774 -12.274
ltibia -3.37876
lfoot 83.7099 -126.32
ltoes 42.4725
1720
root -0.596546 17.5209 9.58557 22.9619 -25.672 -11.1721
lowerback 1.92665 -2.82572 8.75615
upperback -9.87425 -2.8429 4.59951
thorax -12.0089 -1.99222 0.511772
lowerneck -19.032 -0.138388 2.04641
upperneck 29.8432 -0.378977 -2.26958
head 13.1829 -0.327827 -1.32176
rclavicle -2.03816e-014 1.25234e-014
rhumerus -34.6004 20.9164 -93.9386
rradius 85.8547
rwrist -39.2002
rhand 14.0612 -52.5671
rfingers 7.12502
rthumb 38.9672 -1518.1
lclavicle -2.03816e-014 1.25234e-014
lhumerus -15.4606 -48.4068 113.706
lradius 51.0215
lwrist 27.3267
lhand -43.8581 -4.42551
lfingers 7.12502
lthumb -16.6846 24.8774
rfemur -19.7861 21.9746 26.21
rtibia 5.17208
rfoot -6.57752 -0.205122
rtoes 5.3159
lfemur 6.31364 -55.5897 -12.4252
ltibia -3.38687
lfoot 84.2588 -126.149
ltoes 42.4059
1721
root -0.570182 17.5239 9.586 22.2721 -24.9897 -10.9493
lowerback 1.67886 -2.77051 9.10844
upperback -9.84612 -2.80954 4.12192
thorax -11.8749 -2.03166 -0.221935
lowerneck -18.7804 -0.254658 2.16871
upperneck 29.884 -0.706903 -1.90077
head 13.1391 -0.405483 -1.25154
rclavicle 6.27321e-014 -5.85918e-014
rhumerus -36.8972 20.1955 -95.0533
rradius 86.9234
rwrist -38.3741
rhand 14.2962 -52.7809
rfingers 7.12502
rthumb 39.1888 -1518.25
lclavicle 6.27321e-014 -5.85918e-014
lhumerus -18.9019 -50.3541 115.001
lradius 52.5386
lwrist 26.9017
lhand -44.6007 -5.25502
lfingers 7.12502
lthumb -17.3994 23.9862
rfemur -19.0065 21.9717 26.1562
rtibia 4.90846
rfoot -6.65436 -1.04196
rtoes 5.35847
lfemur 6.91911 -55.6293 -13.0421
ltibia -3.37367
lfoot 85.4563 -125.615
ltoes 41.953
1722
root -0.539348 17.5328 9.58589 21.3487 -24.238 -10.6575
lowerback 1.35622 -2.7299 9.60808
upperback -9.5547 -2.82277 3.49375
thorax -11.4143 -2.09729 -1.21435
lowerneck -18.7967 -0.330282 2.23009
upperneck 30.0771 -1.05623 -1.24519
head 13.2204 -0.45851 -1.06658
rclavicle -5.69145e-014 3.09607e-014
rhumerus -38.7329 19.3356 -96.1089
rradius 87.8891
rwrist -37.4893
rhand 14.577 -52.4212
rfingers 7.12502
rthumb 39.4534 -1517.81
lclavicle -5.69145e-014 3.09607e-014
lhumerus -21.3857 -51.6442 115.401
lradius 54.5526
lwrist 29.5759
lhand -42.9897 -5.6537
lfingers 7.12502
lthumb -15.8484 23.7177
rfemur -17.9778 21.9189 26.1209
rtibia 4.61537
rfoot -6.75514 -1.91528
rtoes 5.06524
lfemur 7.78822 -55.6204 -13.9825
ltibia -3.28742
lfoot 86.9334 -125.166
ltoes 41.4927
1723
root -0.532793 17.5232 9.57869 21.2856 -23.4056 -10.4955
lowerback 1.87049 -2.73769 7.4048
upperback -10.4571 -2.77433 4.83124
thorax -12.5361 -1.8313 1.53131
lowerneck -18.2528 -0.437428 1.45477
upperneck 30.4934 -0.601789 -2.28397
head 13.2853 -0.495703 -1.26731
rclavicle -1.13307e-014 0
rhumerus -42.28 20.1819 -95.2156
rradius 89.1129
rwrist -36.8711
rhand 15.0063 -51.5342
rfingers 7.12502
rthumb 39.8575 -1516.8
lclavicle -1.13307e-014 0
lhumerus -24.958 -51.1824 119.281
lradius 55.9242
lwrist 30.2961
lhand -43.376 -6.0183
lfingers 7.12502
lthumb -16.2204 23.3231
rfemur -17.9289 22.7426 25.8581
rtibia 4.46987
rfoot -6.90944 -3.57287
rtoes 4.65662
lfemur 7.08269 -55.3672 -13.1845
ltibia -3.46287
lfoot 88.767 -124.64
ltoes 40.8452
